<svg width="12" height="12" viewBox="0 0 12 12" fill="none" xmlns="http://www.w3.org/2000/svg">
<g id="fi-rr-cross" clip-path="url(#clip0_128_2042)">
<path d="M11.8538 0.146882C11.76 0.053146 11.6328 0.000488281 11.5003 0.000488281C11.3677 0.000488281 11.2405 0.053146 11.1468 0.146882L6.00026 5.29338L0.853759 0.146882C0.759996 0.053146 0.632842 0.000488281 0.500259 0.000488281C0.367677 0.000488281 0.240523 0.053146 0.146759 0.146882C0.0530239 0.240645 0.000366211 0.367799 0.000366211 0.500381C0.000366211 0.632964 0.0530239 0.760118 0.146759 0.853882L5.29326 6.00038L0.146759 11.1469C0.0530239 11.2406 0.000366211 11.3678 0.000366211 11.5004C0.000366211 11.633 0.0530239 11.7601 0.146759 11.8539C0.240523 11.9476 0.367677 12.0003 0.500259 12.0003C0.632842 12.0003 0.759996 11.9476 0.853759 11.8539L6.00026 6.70738L11.1468 11.8539C11.2405 11.9476 11.3677 12.0003 11.5003 12.0003C11.6328 12.0003 11.76 11.9476 11.8538 11.8539C11.9475 11.7601 12.0002 11.633 12.0002 11.5004C12.0002 11.3678 11.9475 11.2406 11.8538 11.1469L6.70726 6.00038L11.8538 0.853882C11.9475 0.760118 12.0002 0.632964 12.0002 0.500381C12.0002 0.367799 11.9475 0.240645 11.8538 0.146882Z" fill="#5C5B5D"/>
</g>
<defs>
<clipPath id="clip0_128_2042">
<rect width="12" height="12" fill="white"/>
</clipPath>
</defs>
</svg>
